<svg xmlns="http://www.w3.org/2000/svg"  viewBox="0 0 24 24" width="120px" height="120px"><path d="M 3.5 3.0078125 A 0.50005 0.50005 0 0 0 3 3.5078125 L 3 20.494141 A 0.50005 0.50005 0 0 0 3.5 20.994141 L 20.501953 20.994141 A 0.50005 0.50005 0 0 0 21.001953 20.494141 L 21.001953 3.5078125 A 0.50005 0.50005 0 0 0 20.501953 3.0078125 L 3.5 3.0078125 z M 4 4.0078125 L 20.001953 4.0078125 L 20.001953 19.994141 L 17.130859 19.994141 C 18.779086 19.96277 20 19.078323 20 17.480469 C 20 15.973469 19.143953 15.294625 17.626953 14.640625 L 17.179688 14.453125 C 16.415688 14.106125 16.083984 13.892703 16.083984 13.345703 C 16.083984 12.905703 16.4145 12.572266 16.9375 12.572266 C 17.4505 12.572266 17.780938 12.799703 18.085938 13.345703 L 19.474609 12.439453 C 18.888609 11.399453 18.0725 11 16.9375 11 C 15.3445 11 14.324219 12.026719 14.324219 13.386719 C 14.324219 14.853719 15.18175 15.560422 16.46875 16.107422 L 16.912109 16.306641 C 17.725109 16.666641 18.128906 16.881812 18.128906 17.507812 C 18.128906 17.947813 17.597953 18.1875 17.001953 18.1875 C 16.121953 18.1875 15.705219 17.786156 15.324219 17.160156 L 13.921875 18.107422 C 14.436082 19.127005 15.355239 19.963047 16.955078 19.994141 L 4 19.994141 L 4 4.0078125 z M 11 11 L 11 16.865234 C 11 17.799234 10.689078 18.066406 10.080078 18.066406 C 9.4430781 18.066406 9.0009375 17.680156 8.7109375 17.160156 L 7.1992188 18.066406 C 7.6362188 19.000406 8.7074063 19.986328 10.191406 19.986328 C 11.835406 19.986328 13 19.080156 13 17.160156 L 13 11 L 11 11 z"/></svg>