<svg xmlns="http://www.w3.org/2000/svg" viewBox="0 0 256 256" fill="#000000" id="Database-Thin--Streamline-Phosphor-Thin">
  <desc>
    Database Thin Streamline Icon: https://streamlinehq.com
  </desc>
  <path d="M208.4572 20.8115C186.8815 9.0453 158.3063 2.56 128 2.56S69.1185 9.0453 47.5428 20.8115C25.0012 33.1046 12.5952 49.7882 12.5952 67.7888v120.4224c0 18.0006 12.406 34.6842 34.9476 46.9773C69.1185 246.9548 97.7188 253.44 128 253.44s58.8815 -6.4852 80.4572 -18.2515c22.5792 -12.2931 34.9476 -28.9767 34.9476 -46.9773V67.7888c0 -18.0006 -12.406 -34.6842 -34.9476 -46.9773Zm24.9124 167.3997c0 14.1622 -10.5495 27.7222 -29.7167 38.1714 -20.1206 10.976 -46.9899 17.0222 -75.6529 17.0222s-55.5323 -6.0462 -75.6529 -17.0222c-19.1672 -10.4492 -29.7167 -24.0092 -29.7167 -38.1714v-33.2667c5.8831 7.4386 14.2625 14.2249 24.9124 20.0704 21.5757 11.7663 50.176 18.2515 80.4572 18.2515s58.8815 -6.4852 80.4572 -18.2515c10.6499 -5.8079 19.0293 -12.544 24.9124 -20.0704Zm0 -60.2112c0 14.1622 -10.5495 27.7222 -29.7167 38.1714 -20.1206 10.976 -46.9899 17.0222 -75.6529 17.0222s-55.5323 -6.0462 -75.6529 -17.0222C33.1799 155.7222 22.6304 142.1622 22.6304 128V94.7333c5.8831 7.4386 14.2625 14.2249 24.9124 20.0704C69.1185 126.57 97.7188 133.0552 128 133.0552s58.8815 -6.4852 80.4572 -18.2515c10.6499 -5.8079 19.0293 -12.544 24.9124 -20.0704Zm-29.7167 -22.0398c-20.1206 10.976 -46.9899 17.0222 -75.6529 17.0222s-55.5323 -6.0462 -75.6529 -17.0222C33.1799 95.511 22.6304 81.951 22.6304 67.7888s10.5495 -27.7222 29.7167 -38.1714C72.4677 18.6414 99.337 12.5952 128 12.5952s55.5323 6.0462 75.6529 17.0222c19.1672 10.4492 29.7167 24.0092 29.7167 38.1714s-10.5495 27.7222 -29.7167 38.1714Z" stroke-width="1"></path>
</svg>