<svg xmlns="http://www.w3.org/2000/svg" viewBox="0 0 256 256" fill="currentColor" id="Puzzle-Piece-Thin--Streamline-Phosphor-Thin">
  <desc>
    Puzzle Piece Thin Streamline Icon: https://streamlinehq.com
  </desc>
  <path d="M251.1959 178.5525c-1.3994 -0.8905 -3.1581 -0.9998 -4.6571 -0.2896 -19.9593 9.4622 -42.7376 -6.0094 -41.2985 -28.0512 1.3265 -20.4084 22.8183 -33.0473 41.2985 -24.2868 3.202 1.525 6.9 -0.8089 6.9012 -4.3555V70.0518c0 -7.996 -6.482 -14.478 -14.478 -14.478h-49.4666c7.374 -28.7912 -19.1847 -54.7682 -47.8055 -46.7587 -15.6497 4.3796 -26.8815 18.09 -28.0955 34.2955 -0.302 4.1864 0.0687 8.3941 1.0979 12.4632H65.2258c-7.996 0 -14.478 6.482 -14.478 14.478v44.6405c-28.7912 -7.3739 -54.7682 19.1847 -46.7587 47.8056 4.3796 15.6496 18.09 26.8815 34.2955 28.0954 4.1864 0.3081 8.3951 -0.0626 12.4632 -1.0979v44.6406c0 7.996 6.482 14.478 14.478 14.478H238.962c7.996 0 14.478 -6.482 14.478 -14.478v-51.5056c0.0003 -1.654 -0.8466 -3.193 -2.2441 -4.0779Zm-7.4079 55.5835c0 2.6652 -2.1608 4.8259 -4.826 4.826H65.2258c-2.6654 0.0001 -4.826 -2.1606 -4.826 -4.826v-51.5056c0.0002 -1.654 -0.8467 -3.193 -2.2441 -4.0779 -1.3965 -0.8861 -3.1494 -0.9954 -4.645 -0.2896 -18.4834 8.7722 -39.9876 -3.8703 -41.3107 -24.2869 -1.4441 -22.0501 21.348 -37.5266 41.3107 -28.0511 3.1986 1.5126 6.8837 -0.8172 6.8891 -4.3555V70.0518c0 -2.6654 2.1606 -4.8261 4.826 -4.826h56.3315c3.5436 0.0035 5.8824 -3.6857 4.3676 -6.8891 -8.7722 -18.4834 3.8703 -39.9876 24.2868 -41.3106 22.0502 -1.4442 37.5266 21.3479 28.0512 41.3106 -1.5149 3.2034 0.824 6.8926 4.3675 6.8891h56.3316c2.6652 0.0001 4.826 2.1607 4.826 4.826v44.6405c-4.0671 -1.0413 -8.2749 -1.4242 -12.4632 -1.1341 -29.6251 2.3789 -45.5656 35.9358 -28.6929 60.4025 9.1387 13.2517 25.5403 19.4427 41.1561 15.5347Z" stroke-width="1"></path>
</svg>