<svg xmlns="http://www.w3.org/2000/svg" xmlns:xlink="http://www.w3.org/1999/xlink" width="500" zoomAndPan="magnify" viewBox="0 0 375 374.999991" height="500" preserveAspectRatio="xMidYMid meet" version="1.2"><defs><clipPath id="a61a678553"><path d="M 68.496094 68.496094 L 306.503906 68.496094 L 306.503906 306.503906 L 68.496094 306.503906 Z M 68.496094 68.496094 "/></clipPath></defs><g id="0b4ce12541"><g clip-rule="nonzero" clip-path="url(#a61a678553)"><path style=" stroke:none;fill-rule:nonzero;fill:#ffffff;fill-opacity:1;" d="M 68.496094 68.496094 L 306.503906 68.496094 L 306.503906 306.503906 L 68.496094 306.503906 Z M 68.496094 68.496094 "/></g><path style="fill-rule:nonzero;fill:#ffffff;fill-opacity:1;stroke-width:1;stroke-linecap:butt;stroke-linejoin:miter;stroke:#000000;stroke-opacity:1;stroke-miterlimit:4;" d="M 1.999854 2.500227 L 9.000211 2.500227 M 12.000017 2.500227 L 13.000155 2.500227 M 14.000292 2.500227 L 17.000098 2.500227 M 18.000236 2.500227 L 22.99971 2.500227 M 24.999986 2.500227 L 26.000124 2.500227 M 27.999792 2.500227 L 35.000149 2.500227 M 1.999854 3.499757 L 2.999991 3.499757 M 8.000073 3.499757 L 9.000211 3.499757 M 10.999879 3.499757 L 12.000017 3.499757 M 14.000292 3.499757 L 19.999904 3.499757 M 23.999848 3.499757 L 24.999986 3.499757 M 26.000124 3.499757 L 27.000261 3.499757 M 27.999792 3.499757 L 28.99993 3.499757 M 34.000011 3.499757 L 35.000149 3.499757 M 1.999854 4.499895 L 2.999991 4.499895 M 4.000129 4.499895 L 6.999935 4.499895 M 8.000073 4.499895 L 9.000211 4.499895 M 9.999741 4.499895 L 10.999879 4.499895 M 13.000155 4.499895 L 15.999961 4.499895 M 17.000098 4.499895 L 18.000236 4.499895 M 18.999767 4.499895 L 22.99971 4.499895 M 27.999792 4.499895 L 28.99993 4.499895 M 30.000068 4.499895 L 32.999874 4.499895 M 34.000011 4.499895 L 35.000149 4.499895 M 1.999854 5.500033 L 2.999991 5.500033 M 4.000129 5.500033 L 6.999935 5.500033 M 8.000073 5.500033 L 9.000211 5.500033 M 9.999741 5.500033 L 12.000017 5.500033 M 13.000155 5.500033 L 14.000292 5.500033 M 15.999961 5.500033 L 18.999767 5.500033 M 21.000042 5.500033 L 27.000261 5.500033 M 27.999792 5.500033 L 28.99993 5.500033 M 30.000068 5.500033 L 32.999874 5.500033 M 34.000011 5.500033 L 35.000149 5.500033 M 1.999854 6.500171 L 2.999991 6.500171 M 4.000129 6.500171 L 6.999935 6.500171 M 8.000073 6.500171 L 9.000211 6.500171 M 9.999741 6.500171 L 13.000155 6.500171 M 17.000098 6.500171 L 18.000236 6.500171 M 19.999904 6.500171 L 21.000042 6.500171 M 26.000124 6.500171 L 27.000261 6.500171 M 27.999792 6.500171 L 28.99993 6.500171 M 30.000068 6.500171 L 32.999874 6.500171 M 34.000011 6.500171 L 35.000149 6.500171 M 1.999854 7.499701 L 2.999991 7.499701 M 8.000073 7.499701 L 9.000211 7.499701 M 9.999741 7.499701 L 14.999823 7.499701 M 15.999961 7.499701 L 21.000042 7.499701 M 22.00018 7.499701 L 23.999848 7.499701 M 27.999792 7.499701 L 28.99993 7.499701 M 34.000011 7.499701 L 35.000149 7.499701 M 1.999854 8.499839 L 9.000211 8.499839 M 9.999741 8.499839 L 10.999879 8.499839 M 12.000017 8.499839 L 13.000155 8.499839 M 14.000292 8.499839 L 14.999823 8.499839 M 15.999961 8.499839 L 17.000098 8.499839 M 18.000236 8.499839 L 18.999767 8.499839 M 19.999904 8.499839 L 21.000042 8.499839 M 22.00018 8.499839 L 22.99971 8.499839 M 23.999848 8.499839 L 24.999986 8.499839 M 26.000124 8.499839 L 27.000261 8.499839 M 27.999792 8.499839 L 35.000149 8.499839 M 9.999741 9.499977 L 13.000155 9.499977 M 15.999961 9.499977 L 18.000236 9.499977 M 22.99971 9.499977 L 26.000124 9.499977 M 1.999854 10.500115 L 2.999991 10.500115 M 4.000129 10.500115 L 9.000211 10.500115 M 12.000017 10.500115 L 13.000155 10.500115 M 14.000292 10.500115 L 18.000236 10.500115 M 18.999767 10.500115 L 19.999904 10.500115 M 23.999848 10.500115 L 27.000261 10.500115 M 27.999792 10.500115 L 32.999874 10.500115 M 1.999854 11.500252 L 8.000073 11.500252 M 9.000211 11.500252 L 9.999741 11.500252 M 10.999879 11.500252 L 12.000017 11.500252 M 13.000155 11.500252 L 14.999823 11.500252 M 18.000236 11.500252 L 18.999767 11.500252 M 19.999904 11.500252 L 22.00018 11.500252 M 22.99971 11.500252 L 23.999848 11.500252 M 24.999986 11.500252 L 26.000124 11.500252 M 27.999792 11.500252 L 30.000068 11.500252 M 31.000205 11.500252 L 35.000149 11.500252 M 1.999854 12.499783 L 5.000267 12.499783 M 6.999935 12.499783 L 9.000211 12.499783 M 10.999879 12.499783 L 14.000292 12.499783 M 17.000098 12.499783 L 18.999767 12.499783 M 19.999904 12.499783 L 21.000042 12.499783 M 22.99971 12.499783 L 23.999848 12.499783 M 26.000124 12.499783 L 28.99993 12.499783 M 30.000068 12.499783 L 31.000205 12.499783 M 31.999736 12.499783 L 34.000011 12.499783 M 1.999854 13.499921 L 2.999991 13.499921 M 5.000267 13.499921 L 5.999798 13.499921 M 6.999935 13.499921 L 8.000073 13.499921 M 9.000211 13.499921 L 10.999879 13.499921 M 12.000017 13.499921 L 13.000155 13.499921 M 14.000292 13.499921 L 14.999823 13.499921 M 15.999961 13.499921 L 17.000098 13.499921 M 18.000236 13.499921 L 18.999767 13.499921 M 21.000042 13.499921 L 26.000124 13.499921 M 30.000068 13.499921 L 35.000149 13.499921 M 5.999798 14.500058 L 6.999935 14.500058 M 8.000073 14.500058 L 9.000211 14.500058 M 10.999879 14.500058 L 13.000155 14.500058 M 19.999904 14.500058 L 22.00018 14.500058 M 22.99971 14.500058 L 23.999848 14.500058 M 24.999986 14.500058 L 27.999792 14.500058 M 28.99993 14.500058 L 31.999736 14.500058 M 1.999854 15.500196 L 8.000073 15.500196 M 9.999741 15.500196 L 10.999879 15.500196 M 14.999823 15.500196 L 19.999904 15.500196 M 22.00018 15.500196 L 22.99971 15.500196 M 23.999848 15.500196 L 27.000261 15.500196 M 27.999792 15.500196 L 28.99993 15.500196 M 31.000205 15.500196 L 35.000149 15.500196 M 2.999991 16.499727 L 5.000267 16.499727 M 8.000073 16.499727 L 9.999741 16.499727 M 10.999879 16.499727 L 12.000017 16.499727 M 13.000155 16.499727 L 15.999961 16.499727 M 18.999767 16.499727 L 19.999904 16.499727 M 21.000042 16.499727 L 22.00018 16.499727 M 23.999848 16.499727 L 24.999986 16.499727 M 27.000261 16.499727 L 30.000068 16.499727 M 31.999736 16.499727 L 34.000011 16.499727 M 1.999854 17.499864 L 2.999991 17.499864 M 4.000129 17.499864 L 5.000267 17.499864 M 10.999879 17.499864 L 14.000292 17.499864 M 15.999961 17.499864 L 17.000098 17.499864 M 18.000236 17.499864 L 18.999767 17.499864 M 21.000042 17.499864 L 23.999848 17.499864 M 24.999986 17.499864 L 28.99993 17.499864 M 30.000068 17.499864 L 32.999874 17.499864 M 1.999854 18.500002 L 5.000267 18.500002 M 6.999935 18.500002 L 10.999879 18.500002 M 13.000155 18.500002 L 14.999823 18.500002 M 18.999767 18.500002 L 19.999904 18.500002 M 21.000042 18.500002 L 22.00018 18.500002 M 23.999848 18.500002 L 24.999986 18.500002 M 26.000124 18.500002 L 27.999792 18.500002 M 28.99993 18.500002 L 31.000205 18.500002 M 34.000011 18.500002 L 35.000149 18.500002 M 1.999854 19.50014 L 4.000129 19.50014 M 5.000267 19.50014 L 6.999935 19.50014 M 9.000211 19.50014 L 9.999741 19.50014 M 12.000017 19.50014 L 13.000155 19.50014 M 15.999961 19.50014 L 17.000098 19.50014 M 18.999767 19.50014 L 22.99971 19.50014 M 24.999986 19.50014 L 30.000068 19.50014 M 31.000205 19.50014 L 35.000149 19.50014 M 1.999854 20.500278 L 2.999991 20.500278 M 4.000129 20.500278 L 5.999798 20.500278 M 8.000073 20.500278 L 14.000292 20.500278 M 15.999961 20.500278 L 18.000236 20.500278 M 18.999767 20.500278 L 19.999904 20.500278 M 22.00018 20.500278 L 22.99971 20.500278 M 23.999848 20.500278 L 24.999986 20.500278 M 27.000261 20.500278 L 27.999792 20.500278 M 28.99993 20.500278 L 31.000205 20.500278 M 31.999736 20.500278 L 34.000011 20.500278 M 1.999854 21.499808 L 4.000129 21.499808 M 6.999935 21.499808 L 8.000073 21.499808 M 9.999741 21.499808 L 12.000017 21.499808 M 13.000155 21.499808 L 14.000292 21.499808 M 18.000236 21.499808 L 21.000042 21.499808 M 24.999986 21.499808 L 26.000124 21.499808 M 27.000261 21.499808 L 27.999792 21.499808 M 28.99993 21.499808 L 34.000011 21.499808 M 1.999854 22.499946 L 2.999991 22.499946 M 4.000129 22.499946 L 5.000267 22.499946 M 6.999935 22.499946 L 9.000211 22.499946 M 12.000017 22.499946 L 14.000292 22.499946 M 14.999823 22.499946 L 17.000098 22.499946 M 18.000236 22.499946 L 18.999767 22.499946 M 21.000042 22.499946 L 24.999986 22.499946 M 27.000261 22.499946 L 27.999792 22.499946 M 28.99993 22.499946 L 31.999736 22.499946 M 32.999874 22.499946 L 34.000011 22.499946 M 1.999854 23.500084 L 2.999991 23.500084 M 4.000129 23.500084 L 8.000073 23.500084 M 9.000211 23.500084 L 9.999741 23.500084 M 13.000155 23.500084 L 14.000292 23.500084 M 14.999823 23.500084 L 18.000236 23.500084 M 18.999767 23.500084 L 21.000042 23.500084 M 24.999986 23.500084 L 26.000124 23.500084 M 27.999792 23.500084 L 28.99993 23.500084 M 31.000205 23.500084 L 31.999736 23.500084 M 34.000011 23.500084 L 35.000149 23.500084 M 1.999854 24.500221 L 2.999991 24.500221 M 5.000267 24.500221 L 6.999935 24.500221 M 8.000073 24.500221 L 10.999879 24.500221 M 14.000292 24.500221 L 14.999823 24.500221 M 15.999961 24.500221 L 18.999767 24.500221 M 22.00018 24.500221 L 22.99971 24.500221 M 27.000261 24.500221 L 27.999792 24.500221 M 31.000205 24.500221 L 31.999736 24.500221 M 32.999874 24.500221 L 34.000011 24.500221 M 1.999854 25.499752 L 2.999991 25.499752 M 5.999798 25.499752 L 8.000073 25.499752 M 9.999741 25.499752 L 10.999879 25.499752 M 14.999823 25.499752 L 18.000236 25.499752 M 22.99971 25.499752 L 24.999986 25.499752 M 26.000124 25.499752 L 32.999874 25.499752 M 1.999854 26.49989 L 2.999991 26.49989 M 5.999798 26.49989 L 9.000211 26.49989 M 10.999879 26.49989 L 18.000236 26.49989 M 18.999767 26.49989 L 21.000042 26.49989 M 23.999848 26.49989 L 24.999986 26.49989 M 26.000124 26.49989 L 31.999736 26.49989 M 32.999874 26.49989 L 35.000149 26.49989 M 9.999741 27.500027 L 10.999879 27.500027 M 14.000292 27.500027 L 17.000098 27.500027 M 18.000236 27.500027 L 18.999767 27.500027 M 19.999904 27.500027 L 23.999848 27.500027 M 24.999986 27.500027 L 27.000261 27.500027 M 30.000068 27.500027 L 31.000205 27.500027 M 31.999736 27.500027 L 35.000149 27.500027 M 1.999854 28.500165 L 9.000211 28.500165 M 10.999879 28.500165 L 14.000292 28.500165 M 15.999961 28.500165 L 18.999767 28.500165 M 19.999904 28.500165 L 21.000042 28.500165 M 22.99971 28.500165 L 23.999848 28.500165 M 24.999986 28.500165 L 27.000261 28.500165 M 27.999792 28.500165 L 28.99993 28.500165 M 30.000068 28.500165 L 31.000205 28.500165 M 31.999736 28.500165 L 34.000011 28.500165 M 1.999854 29.500303 L 2.999991 29.500303 M 8.000073 29.500303 L 9.000211 29.500303 M 9.999741 29.500303 L 10.999879 29.500303 M 12.000017 29.500303 L 13.000155 29.500303 M 14.000292 29.500303 L 18.000236 29.500303 M 22.00018 29.500303 L 27.000261 29.500303 M 30.000068 29.500303 L 35.000149 29.500303 M 1.999854 30.499833 L 2.999991 30.499833 M 4.000129 30.499833 L 6.999935 30.499833 M 8.000073 30.499833 L 9.000211 30.499833 M 9.999741 30.499833 L 10.999879 30.499833 M 12.000017 30.499833 L 14.000292 30.499833 M 19.999904 30.499833 L 21.000042 30.499833 M 22.99971 30.499833 L 23.999848 30.499833 M 26.000124 30.499833 L 31.999736 30.499833 M 32.999874 30.499833 L 34.000011 30.499833 M 1.999854 31.499971 L 2.999991 31.499971 M 4.000129 31.499971 L 6.999935 31.499971 M 8.000073 31.499971 L 9.000211 31.499971 M 9.999741 31.499971 L 13.000155 31.499971 M 14.000292 31.499971 L 15.999961 31.499971 M 17.000098 31.499971 L 19.999904 31.499971 M 22.00018 31.499971 L 26.000124 31.499971 M 27.000261 31.499971 L 27.999792 31.499971 M 30.000068 31.499971 L 32.999874 31.499971 M 34.000011 31.499971 L 35.000149 31.499971 M 1.999854 32.500109 L 2.999991 32.500109 M 4.000129 32.500109 L 6.999935 32.500109 M 8.000073 32.500109 L 9.000211 32.500109 M 9.999741 32.500109 L 10.999879 32.500109 M 14.999823 32.500109 L 17.000098 32.500109 M 18.999767 32.500109 L 19.999904 32.500109 M 21.000042 32.500109 L 22.00018 32.500109 M 22.99971 32.500109 L 30.000068 32.500109 M 1.999854 33.500247 L 2.999991 33.500247 M 8.000073 33.500247 L 9.000211 33.500247 M 10.999879 33.500247 L 13.000155 33.500247 M 14.000292 33.500247 L 17.000098 33.500247 M 18.000236 33.500247 L 18.999767 33.500247 M 21.000042 33.500247 L 24.999986 33.500247 M 27.000261 33.500247 L 27.999792 33.500247 M 30.000068 33.500247 L 32.999874 33.500247 M 1.999854 34.499777 L 9.000211 34.499777 M 9.999741 34.499777 L 12.000017 34.499777 M 15.999961 34.499777 L 17.000098 34.499777 M 18.999767 34.499777 L 19.999904 34.499777 M 21.000042 34.499777 L 22.00018 34.499777 M 23.999848 34.499777 L 30.000068 34.499777 M 32.999874 34.499777 L 34.000011 34.499777 " transform="matrix(6.432708,0,0,6.432708,68.494901,68.494896)"/></g></svg>